<svg id="Capa_1" enable-background="new 0 0 512 512" height="512" viewBox="0 0 512 512" width="512" xmlns="http://www.w3.org/2000/svg"><g><g><path clip-rule="evenodd" d="m17.343 171.57v275.075c0 15.335 12.529 27.836 27.836 27.836h421.615c15.307 0 27.836-12.529 27.836-27.836v-275.075l-243.588-18.198z" fill="#eff6ff" fill-rule="evenodd"/></g><g><path clip-rule="evenodd" d="m125.255 395.508 114.29 17.541 12.487-51.5c0-6.718-19.071-29.173-25.789-29.173l-100.988 11.967z" fill="#ffd772" fill-rule="evenodd"/></g><g><path clip-rule="evenodd" d="m99.205 488.257c0 8.929 7.313 16.243 16.242 16.243h281.105c8.929 0 16.242-7.313 16.242-16.243v-13.776-14.485l-152.387-39.674s-161.202 36.369-161.202 39.674v14.485z" fill="#ffd772" fill-rule="evenodd"/></g><g><path clip-rule="evenodd" d="m384.279 488.257c0 8.929-7.313 16.243-16.242 16.243h28.516c8.929 0 16.242-7.313 16.242-16.243v-13.776-14.485c-7.937 7.937-18.113 12.246-28.516 12.898v1.587z" fill="#fbba58" fill-rule="evenodd"/></g><g><path clip-rule="evenodd" d="m294.188 357.668 12.399 65.299 80.159-27.46v-51.166l-70.24-11.967c-30.749-2.479-22.318 25.294-22.318 25.294z" fill="#ffd772" fill-rule="evenodd"/></g><g><path clip-rule="evenodd" d="m358.257 344.342v51.166h9.78 18.708v-51.166z" fill="#fbba58" fill-rule="evenodd"/></g><g><path clip-rule="evenodd" d="m232.742 271.463v30.076l23.244 12.387 23.244-12.387v-30.076c0-2.976-2.438-5.386-5.386-5.386h-17.858-17.829c-2.977 0-5.415 2.41-5.415 5.386z" fill="#9fd4fe" fill-rule="evenodd"/></g><g><path clip-rule="evenodd" d="m17.343 171.57h477.286c5.357 0 9.723-4.28 9.864-9.609v-.227-26.561l-245.333-22.847-251.653 22.847v26.561.17c.085 5.329 4.478 9.666 9.836 9.666z" fill="#9fd4fe" fill-rule="evenodd"/></g><g><path clip-rule="evenodd" d="m99.205 411.75v48.246c17.319 17.32 45.382 17.32 62.701 0s45.41-17.32 62.729 0 45.41 17.32 62.729 0 45.382-17.32 62.701 0 45.41 17.32 62.729 0v-48.246c0-8.929-7.313-16.243-16.242-16.243h-9.808-147.2-114.29-9.808c-8.927.001-16.241 7.314-16.241 16.243z" fill="#c38c66" fill-rule="evenodd"/></g><g><path clip-rule="evenodd" d="m227.328 344.342c6.718 0 12.217 5.499 12.217 12.217v38.948 23.187c0 21.628 32.909 21.628 32.909 0v-18.028c0 9.043 7.398 16.441 16.441 16.441 9.042 0 16.469-7.398 16.469-16.441v-5.159-38.948c0-6.718 5.471-12.217 12.189-12.217h69.192v-25.625c0-9.439-7.71-17.178-17.149-17.178h-90.366-8.901-37.587-90.338c-9.439 0-17.149 7.739-17.149 17.178v25.625z" fill="#eb5468" fill-rule="evenodd"/></g><g><path clip-rule="evenodd" d="m358.257 318.717v25.625h28.488v-25.625c0-9.439-7.71-17.178-17.149-17.178h-28.516c9.439 0 17.177 7.738 17.177 17.178z" fill="#e5384f" fill-rule="evenodd"/></g><g><path clip-rule="evenodd" d="m384.279 411.75v48.246 12.898c10.403-.652 20.579-4.961 28.516-12.898v-48.246c0-8.929-7.313-16.243-16.242-16.243h-9.808-18.708c8.957.001 16.242 7.314 16.242 16.243z" fill="#b57f5f" fill-rule="evenodd"/></g><g><path clip-rule="evenodd" d="m255.986 208.619c-10.573 0-19.133 27.723-19.133 38.296 0 7.654 4.479 15.449 10.97 19.162l8.164 6.86 8.192-6.86c6.491-3.713 10.97-11.509 10.97-19.162-.001-10.573-8.562-38.296-19.163-38.296z" fill="#ffd772" fill-rule="evenodd"/></g><g><path clip-rule="evenodd" d="m248.134 215.195c7.058 0 18 46.658 15.137 50.882-.51.737-1.049 1.446-1.644 2.126l2.551-2.126c6.491-3.713 10.97-11.509 10.97-19.162 0-10.573-8.56-38.296-19.162-38.296-3.288 0-6.378 2.665-9.071 6.69.397-.086-4.28-.114 1.219-.114z" fill="#fbba58" fill-rule="evenodd"/></g><g><path clip-rule="evenodd" d="m265.822 271.463v30.076h13.408v-30.076c0-2.976-2.438-5.386-5.386-5.386h-13.436c2.976 0 5.414 2.41 5.414 5.386z" fill="#85beef" fill-rule="evenodd"/></g><g><path clip-rule="evenodd" d="m494.629 446.645v-275.075h-154.116c9.524 32.712 14.768 68.372 14.768 105.704 0 8.164-.255 16.271-.737 24.265h15.052c9.439 0 17.149 7.739 17.149 17.178v25.625 51.166h9.808c8.929 0 16.242 7.313 16.242 16.243v48.246 14.485h53.999c15.306-.001 27.835-12.53 27.835-27.837z" fill="#d9eeff" fill-rule="evenodd"/></g><g><path clip-rule="evenodd" d="m7.507 135.173h496.987v-67.748-.227c-.142-5.301-4.507-9.609-9.864-9.609-164.717 0-312.541 0-477.286 0-5.357 0-9.751 4.337-9.836 9.666v.17 67.748z" fill="#eb5468" fill-rule="evenodd"/></g><g><path clip-rule="evenodd" d="m81.206 7.5c12.415 0 22.592 10.148 22.592 22.592v48.189c0 12.416-10.176 22.592-22.592 22.592-12.444 0-22.62-10.176-22.62-22.592v-48.189c0-12.444 10.176-22.592 22.62-22.592z" fill="#ffd772" fill-rule="evenodd"/></g><g><path clip-rule="evenodd" d="m197.735 7.5c12.415 0 22.592 10.148 22.592 22.592v48.189c0 12.416-10.176 22.592-22.592 22.592-12.444 0-22.592-10.176-22.592-22.592v-48.189c.001-12.444 10.148-22.592 22.592-22.592z" fill="#ffd772" fill-rule="evenodd"/></g><g><path clip-rule="evenodd" d="m314.265 7.5c12.415 0 22.592 10.148 22.592 22.592v48.189c0 12.416-10.176 22.592-22.592 22.592-12.444 0-22.592-10.176-22.592-22.592v-48.189c0-12.444 10.148-22.592 22.592-22.592z" fill="#ffd772" fill-rule="evenodd"/></g><g><path clip-rule="evenodd" d="m394.512 135.173h109.982v-67.748-.227c-.142-5.301-4.507-9.609-9.864-9.609h-41.243v20.693c0 12.416-10.176 22.592-22.592 22.592-12.415 0-22.592-10.176-22.592-22.592v-20.694h-43.653c11.14 20.438 20.296 42.973 27.127 67.068.992 3.487 1.928 6.974 2.835 10.517z" fill="#e5384f" fill-rule="evenodd"/></g><g><path clip-rule="evenodd" d="m401.683 171.57h92.946c5.357 0 9.723-4.28 9.864-9.609v-.227-26.561h-109.981c2.948 11.82 5.357 23.953 7.171 36.397z" fill="#85beef" fill-rule="evenodd"/></g><g><path clip-rule="evenodd" d="m430.794 7.5c12.415 0 22.592 10.148 22.592 22.592v48.189c0 12.416-10.176 22.592-22.592 22.592-12.415 0-22.592-10.176-22.592-22.592v-48.189c.001-12.444 10.177-22.592 22.592-22.592z" fill="#ffd772" fill-rule="evenodd"/></g><g><path clip-rule="evenodd" d="m103.797 57.588v-27.496c0-12.444-10.176-22.592-22.592-22.592-3.883 0-7.568.992-10.771 2.721 7.427 3.742 12.529 11.395 12.529 20.211v27.156 21.033c0 8.532-4.79 16.016-11.849 19.871 3.033 1.502 6.463 2.381 10.091 2.381 12.415 0 22.592-10.176 22.592-22.592z" fill="#fbba58" fill-rule="evenodd"/></g><g><path clip-rule="evenodd" d="m220.327 57.588v-27.496c0-12.444-10.176-22.592-22.592-22.592-3.883 0-7.568.992-10.743 2.721 7.398 3.742 12.501 11.395 12.501 20.211v27.156 21.033c0 8.532-4.79 16.016-11.849 19.871 3.033 1.502 6.463 2.381 10.091 2.381 12.415 0 22.592-10.176 22.592-22.592z" fill="#fbba58" fill-rule="evenodd"/></g><g><path clip-rule="evenodd" d="m336.856 57.588v-27.496c0-12.444-10.176-22.592-22.592-22.592-3.883 0-7.54.992-10.743 2.721 7.398 3.742 12.5 11.395 12.5 20.211v27.156 21.033c0 8.532-4.79 16.016-11.849 19.871 3.061 1.502 6.463 2.381 10.091 2.381 12.415 0 22.592-10.176 22.592-22.592v-20.693z" fill="#fbba58" fill-rule="evenodd"/></g><g><path clip-rule="evenodd" d="m453.386 57.588v-27.496c0-12.444-10.176-22.592-22.592-22.592-3.883 0-7.54.992-10.743 2.721 7.398 3.742 12.5 11.395 12.5 20.211v27.156 21.033c0 8.532-4.79 16.016-11.82 19.871 3.033 1.502 6.463 2.381 10.063 2.381 12.415 0 22.592-10.176 22.592-22.592z" fill="#fbba58" fill-rule="evenodd"/></g><g><path d="m494.629 50.088h-33.743v-19.996c0-16.592-13.499-30.092-30.092-30.092-16.592 0-30.091 13.5-30.091 30.092v19.996h-56.347v-19.996c0-16.592-13.499-30.092-30.091-30.092s-30.092 13.5-30.092 30.092v19.996h-56.346v-19.996c0-16.592-13.499-30.092-30.092-30.092s-30.092 13.5-30.092 30.092v19.996h-56.346v-19.996c0-16.592-13.499-30.092-30.091-30.092-16.608 0-30.12 13.5-30.12 30.092v19.996h-33.743c-9.559 0-17.336 7.777-17.336 17.336v94.309c0 6.871 4.027 12.802 9.836 15.606v269.305c0 19.484 15.852 35.336 35.335 35.336h46.527v6.276c0 13.092 10.651 23.743 23.742 23.743h281.105c13.092 0 23.742-10.651 23.742-23.743v-6.276h46.498c19.484 0 35.336-15.852 35.336-35.336v-269.299c5.825-2.801 9.864-8.736 9.864-15.612v-94.308c.001-9.56-7.789-17.337-17.363-17.337zm-78.926-19.996c0-8.322 6.77-15.092 15.091-15.092s15.092 6.771 15.092 15.092v48.189c0 8.322-6.771 15.092-15.092 15.092s-15.091-6.771-15.091-15.092zm-116.53 0c0-8.322 6.771-15.092 15.092-15.092s15.092 6.771 15.092 15.092v48.189c0 8.322-6.771 15.092-15.092 15.092s-15.092-6.771-15.092-15.092zm-116.529 0c0-8.322 6.77-15.092 15.092-15.092 8.321 0 15.091 6.771 15.091 15.092v48.189c0 8.322-6.77 15.092-15.091 15.092-8.322 0-15.092-6.771-15.092-15.092zm-116.558 0c0-8.322 6.783-15.092 15.12-15.092 8.322 0 15.092 6.771 15.092 15.092v48.189c0 8.322-6.77 15.092-15.092 15.092-8.337 0-15.12-6.771-15.12-15.092zm-48.743 34.996h33.743v13.193c0 16.593 13.512 30.092 30.12 30.092 16.593 0 30.092-13.5 30.092-30.092v-13.193h56.346v13.193c0 16.593 13.499 30.092 30.092 30.092 16.592 0 30.091-13.5 30.091-30.092v-13.193h56.346v13.193c0 16.593 13.499 30.092 30.092 30.092s30.092-13.5 30.092-30.092v-13.193h56.347v13.193c0 16.593 13.499 30.092 30.091 30.092 16.593 0 30.092-13.5 30.092-30.092v-13.193h33.743c1.304 0 2.364 1.048 2.364 2.336v60.248h-481.987v-60.247c0-1.267 1.07-2.337 2.336-2.337zm115.412 286.754h23.766c4.142 0 7.5-3.358 7.5-7.5s-3.358-7.5-7.5-7.5h-23.766v-18.125c0-5.336 4.329-9.678 9.649-9.678h227.191c5.32 0 9.649 4.342 9.649 9.678v18.125h-61.692c-10.856 0-19.688 8.845-19.688 19.718v44.107c0 4.93-4.023 8.941-8.969 8.941-4.93 0-8.94-4.011-8.94-8.941v-39.118c0-4.142-3.357-7.5-7.5-7.5s-7.5 3.358-7.5 7.5v39.118 18.028c0 8.301-7.46 8.721-8.955 8.721-1.496 0-8.955-.42-8.955-8.721v-62.135c0-10.873-8.845-19.718-19.717-19.718h-36.197c-4.142 0-7.5 3.358-7.5 7.5s3.358 7.5 7.5 7.5h36.197c2.557 0 4.717 2.161 4.717 4.718v31.448h-99.291v-36.166zm111.598-104.927c0-3.653 1.5-11.213 4.365-18.595 3.146-8.101 6.088-11.283 7.273-12.069 1.185.781 4.132 3.954 7.282 12.055 2.872 7.383 4.374 14.95 4.374 18.609 0 4.347-2.337 8.984-5.732 11.662h-11.83c-3.396-2.678-5.732-7.315-5.732-11.662zm-4.111 26.662h7.58 16.355 7.552v20.461h-31.487zm72.622 114.43v-31.447c0-2.602 2.104-4.718 4.688-4.718h61.692v36.166h-66.38zm-80.819 15v15.688c0 15.573 12.051 23.721 23.955 23.721 10.822 0 21.765-6.734 23.666-19.659 2.842 1.192 5.96 1.851 9.229 1.851 12.426 0 22.671-9.494 23.853-21.6h83.805c4.82 0 8.742 3.922 8.742 8.743v44.955c-14.464 12.313-36.266 11.65-49.926-2.012-9.793-9.793-22.811-15.187-36.654-15.187s-26.861 5.393-36.654 15.187c-14.369 14.37-37.751 14.37-52.122 0-9.793-9.793-22.815-15.187-36.667-15.187-13.853 0-26.875 5.393-36.668 15.187-13.653 13.653-35.441 14.317-49.898 2.012v-44.956c0-4.821 3.922-8.743 8.742-8.743zm164.508 93.993h-281.106c-4.82 0-8.742-3.922-8.742-8.743v-13.59c19.518 10.099 44.156 6.98 60.504-9.368 6.96-6.96 16.215-10.793 26.062-10.793 9.846 0 19.101 3.833 26.061 10.793 20.22 20.22 53.118 20.219 73.336 0 6.96-6.96 16.21-10.793 26.047-10.793s19.087 3.833 26.047 10.793c10.109 10.109 23.389 15.164 36.669 15.164 8.205 0 16.407-1.936 23.864-5.795v13.589c0 4.821-3.922 8.743-8.742 8.743zm70.24-30.019h-46.498v-6.98c0-.003 0-.007 0-.01v-48.241c0-13.092-10.65-23.743-23.742-23.743h-2.308v-69.291c0-13.607-11.058-24.678-24.649-24.678h-82.866v-22.576c0-5.059-2.938-9.434-7.191-11.542 1.988-4.049 3.109-8.527 3.109-13.006 0-6.639-2.546-17.337-6.19-26.017-5.511-13.125-12.398-19.779-20.471-19.779-8.062 0-14.941 6.656-20.448 19.782-3.642 8.682-6.186 19.379-6.186 26.014 0 4.477 1.12 8.954 3.107 13.001-4.268 2.105-7.217 6.483-7.217 11.547v22.576h-82.838c-13.592 0-24.649 11.071-24.649 24.678v69.291h-2.308c-13.091 0-23.742 10.651-23.742 23.743v48.244.005 6.982h-46.528c-11.213 0-20.335-9.123-20.335-20.336v-267.575h213.767c4.142 0 7.5-3.358 7.5-7.5s-3.358-7.5-7.5-7.5h-221.267c-1.266 0-2.336-1.07-2.336-2.336v-19.061h481.986v19.061c0 1.288-1.061 2.336-2.364 2.336h-222.656c-4.143 0-7.5 3.358-7.5 7.5s3.357 7.5 7.5 7.5h215.156v267.575c0 11.213-9.123 20.336-20.336 20.336z"/><path d="m407.068 262.064h-9.014c-4.143 0-7.5 3.358-7.5 7.5s3.357 7.5 7.5 7.5h9.014c4.143 0 7.5-3.358 7.5-7.5s-3.357-7.5-7.5-7.5z"/><path d="m456.391 262.064h-8.985c-4.143 0-7.5 3.358-7.5 7.5s3.357 7.5 7.5 7.5h8.985c4.143 0 7.5-3.358 7.5-7.5s-3.358-7.5-7.5-7.5z"/><path d="m427.223 282.218c-4.143 0-7.5 3.358-7.5 7.5v9.014c0 4.142 3.357 7.5 7.5 7.5s7.5-3.358 7.5-7.5v-9.014c0-4.142-3.358-7.5-7.5-7.5z"/><path d="m427.223 232.895c-4.143 0-7.5 3.358-7.5 7.5v9.014c0 4.142 3.357 7.5 7.5 7.5s7.5-3.358 7.5-7.5v-9.014c0-4.142-3.358-7.5-7.5-7.5z"/><path d="m68.394 233.292h-9.014c-4.142 0-7.5 3.358-7.5 7.5s3.358 7.5 7.5 7.5h9.014c4.142 0 7.5-3.358 7.5-7.5s-3.358-7.5-7.5-7.5z"/><path d="m117.715 233.292h-9.014c-4.142 0-7.5 3.358-7.5 7.5s3.358 7.5 7.5 7.5h9.014c4.142 0 7.5-3.358 7.5-7.5s-3.358-7.5-7.5-7.5z"/><path d="m88.547 253.446c-4.142 0-7.5 3.358-7.5 7.5v9.014c0 4.142 3.358 7.5 7.5 7.5s7.5-3.358 7.5-7.5v-9.014c0-4.142-3.358-7.5-7.5-7.5z"/><path d="m88.547 204.124c-4.142 0-7.5 3.358-7.5 7.5v8.986c0 4.142 3.358 7.5 7.5 7.5s7.5-3.358 7.5-7.5v-8.986c0-4.143-3.358-7.5-7.5-7.5z"/></g></g></svg>