<?xml version="1.0" encoding="UTF-8" standalone="no"?><!-- Generator: Gravit.io --><svg xmlns="http://www.w3.org/2000/svg" xmlns:xlink="http://www.w3.org/1999/xlink" style="isolation:isolate" viewBox="0 0 750 500" width="750pt" height="500pt"><defs><clipPath id="_clipPath_1n1Z0Gy6a7ASX6DrmnjZ6xpIPiuYw93c"><rect width="750" height="500"/></clipPath></defs><g clip-path="url(#_clipPath_1n1Z0Gy6a7ASX6DrmnjZ6xpIPiuYw93c)"><g clip-path="url(#_clipPath_JROc56d1MY306iVXNY35lsEy71SiKYyC)"><text transform="matrix(1.59,0,0,1.59,312.225,312.356)" style="font-family:'Montserrat';font-weight:700;font-size:16px;font-style:normal;font-variant-ligatures:none;fill:#000000;stroke:none;">&#x3C;/&#x3E;</text></g><defs><clipPath id="_clipPath_JROc56d1MY306iVXNY35lsEy71SiKYyC"><rect x="0" y="0" width="28" height="19.504" transform="matrix(1.59,0,0,1.59,312.225,287.731)"/></clipPath></defs><clipPath id="_clipPath_08G7cYvfNiL9vIjCo38FhUC7bfPcI8sM"><path d=" M 0 0 L 750 0 L 750 500 L 0 500 L 0 0 Z " fill="rgb(255,255,255)"/></clipPath><g clip-path="url(#_clipPath_08G7cYvfNiL9vIjCo38FhUC7bfPcI8sM)"><path d=" M 466.059 221.789 C 464.567 254.454 432.457 279.483 408.406 280.995 C 376.628 282.992 353.917 254.334 350.753 221.789 C 348.012 193.594 358.025 194.014 365.482 182.262 C 374.518 168.022 391.358 160.154 408.406 160.154 C 440.247 160.154 468.066 177.841 466.059 221.789 Z " fill="rgb(46,46,46)"/><path d=" M 430.749 333.889 L 386.062 333.889 L 386.062 277.946 L 430.749 277.946 L 430.749 333.889 Z " fill="rgb(227,181,170)"/><path d=" M 458.601 248.315 C 466.572 236.219 476.713 235.689 480.949 249.994 C 485.183 264.301 471.205 276.072 459.826 271.728 C 448.445 267.384 458.601 248.315 458.601 248.315 Z " fill="rgb(227,181,170)"/><path d=" M 468.01 245.631 C 473.349 244.654 476.085 260.562 464.376 261.087 L 466.784 255.536 L 464.525 250.919 L 468.01 245.631 Z " fill="rgb(215,143,151)"/><path d=" M 462.625 263.269 C 469.45 255.994 464.524 250.919 464.524 250.919 C 464.524 250.919 471.021 237.596 473.624 247.807" fill="none" vector-effect="non-scaling-stroke" stroke-width="0.5" stroke="rgb(200,126,132)" stroke-linejoin="miter" stroke-linecap="butt" stroke-miterlimit="3" style="mix-blend-mode:source-over;"/><path d=" M 357.838 245.315 C 349.866 233.219 339.725 232.689 335.49 246.994 C 331.255 261.301 345.233 273.072 356.613 268.728 C 367.993 264.384 357.838 245.315 357.838 245.315 Z " fill="rgb(227,181,170)"/><path d=" M 348.428 245.631 C 343.089 244.654 340.352 260.562 352.062 261.087 L 349.654 255.536 L 351.913 250.919 L 348.428 245.631 Z " fill="rgb(215,143,151)"/><path d=" M 353.814 263.269 C 346.987 255.994 351.914 250.919 351.914 250.919 C 351.914 250.919 345.417 237.596 342.814 247.807" fill="none" vector-effect="non-scaling-stroke" stroke-width="0.5" stroke="rgb(200,126,132)" stroke-linejoin="miter" stroke-linecap="butt" stroke-miterlimit="3" style="mix-blend-mode:source-over;"/><path d=" M 430.749 279.183 L 430.749 299.995 C 414.69 321.754 386.062 314.679 386.062 314.679 L 386.563 279.183 L 430.749 279.183 Z " fill="rgb(200,126,132)"/><path d=" M 408.405 303.028 L 408.405 303.028 C 381.729 303.028 360.105 281.404 360.105 254.728 L 360.105 219.432 C 360.105 201.415 374.71 186.81 392.727 186.81 L 424.082 186.81 C 442.099 186.81 456.705 201.415 456.705 219.432 L 456.705 254.728 C 456.705 281.404 435.081 303.028 408.405 303.028 Z " fill="rgb(227,181,170)"/><path d=" M 415.837 261.043 C 415.837 265.147 412.51 268.474 408.405 268.474 C 404.302 268.474 400.975 265.147 400.975 261.043" fill="none" vector-effect="non-scaling-stroke" stroke-width="1" stroke="rgb(184,61,93)" stroke-linejoin="miter" stroke-linecap="butt" stroke-miterlimit="3" style="mix-blend-mode:source-over;"/><path d=" M 365.208 188.97 C 365.208 188.97 356.748 174.948 367.344 162.583 C 367.344 162.583 374.957 176.679 365.208 188.97 Z " fill="rgb(46,46,46)"/><path d=" M 369.505 185.64 C 369.505 185.64 357.725 197.017 343.307 189.448 C 343.307 189.448 355.348 178.881 369.505 185.64 Z " fill="rgb(46,46,46)"/><path d=" M 389.225 243.706 C 389.225 247.7 387.524 250.937 385.426 250.937 C 383.328 250.937 381.626 247.7 381.626 243.706 C 381.626 239.712 383.328 236.475 385.426 236.475 C 387.524 236.475 389.225 239.712 389.225 243.706 Z " fill="rgb(54,54,79)"/><path d=" M 402.884 243.169 C 402.884 253.896 394.189 262.592 383.461 262.592 C 372.734 262.592 364.038 253.896 364.038 243.169 C 364.038 232.442 372.734 223.746 383.461 223.746 C 394.189 223.746 402.884 232.442 402.884 243.169 Z " fill="none" vector-effect="non-scaling-stroke" stroke-width="4" stroke="rgb(227,181,170)" stroke-linejoin="miter" stroke-linecap="butt" stroke-miterlimit="3" style="mix-blend-mode:source-over;"/><path d=" M 435.185 243.706 C 435.185 247.7 433.484 250.937 431.385 250.937 C 429.287 250.937 427.586 247.7 427.586 243.706 C 427.586 239.712 429.287 236.475 431.385 236.475 C 433.484 236.475 435.185 239.712 435.185 243.706 Z " fill="rgb(54,54,79)"/><path d=" M 452.773 243.169 C 452.773 253.896 444.076 262.592 433.349 262.592 C 422.623 262.592 413.926 253.896 413.926 243.169 C 413.926 232.442 422.623 223.746 433.349 223.746 C 444.076 223.746 452.773 232.442 452.773 243.169 Z " fill="none" vector-effect="non-scaling-stroke" stroke-width="4" stroke="rgb(227,181,170)" stroke-linejoin="miter" stroke-linecap="butt" stroke-miterlimit="3" style="mix-blend-mode:source-over;"/><path d=" M 366.091 200.595 C 366.091 200.595 396.776 184.419 417.165 196.143 C 437.554 207.867 439.848 232.079 459.982 225.813 C 459.982 225.813 475.274 219.081 458.453 195.633 C 441.633 172.186 430.124 167.598 408.225 172.696 C 386.326 177.793 372.077 181.757 366.091 200.595 Z " fill="rgb(46,46,46)"/><path d=" M 364.918 200.362 C 364.918 200.362 375.047 186.932 389.225 183.382 C 403.402 179.832 419.085 197.271 419.085 197.271 C 419.085 197.271 382.759 192.092 364.918 200.362 Z " fill="rgb(74,67,67)"/><path d=" M 360.179 217.255 C 360.179 217.255 363.596 242.18 360.179 257.392 C 360.179 257.392 355.185 218.742 360.179 217.255 Z " fill="rgb(46,46,46)"/><path d=" M 456.355 217.255 C 456.355 217.255 452.939 242.18 456.355 257.392 C 456.355 257.392 461.348 218.742 456.355 217.255 Z " fill="rgb(46,46,46)"/><path d=" M 394.084 215.31 C 388.813 212.787 379.439 210.018 370.755 216.204 C 369.298 217.242 369.852 219.532 371.614 219.836 C 374.4 220.317 378.397 220.814 382.922 220.785 C 386.439 220.763 390.602 219.897 393.71 219.098 C 395.537 218.628 395.786 216.124 394.084 215.31 Z " fill="rgb(70,70,70)"/><path d=" M 444.98 215.31 C 439.708 212.787 430.335 210.018 421.65 216.204 C 420.194 217.242 420.749 219.532 422.51 219.836 C 425.295 220.317 429.294 220.814 433.819 220.785 C 437.335 220.763 441.497 219.897 444.605 219.098 C 446.432 218.628 446.682 216.124 444.98 215.31 Z " fill="rgb(70,70,70)"/><path d=" M 424.743 278.488 C 424.242 279.382 423.65 280.317 422.84 281.248 C 420.258 284.356 415.873 287.342 408.362 287.479 L 408.35 287.512 L 407.799 287.502 L 407.778 287.457 C 400.735 287.318 396.395 284.668 393.778 281.743 C 392.764 280.644 391.995 279.483 391.442 278.437 C 390.191 276.036 389.865 274.147 389.865 274.147 L 426.336 274.216 C 426.336 274.216 426.035 276.103 424.743 278.488 Z " fill="rgb(195,62,93)"/><path d=" M 424.743 278.488 C 424.242 279.382 423.65 280.317 422.84 281.248 C 414.469 277.57 404.399 276.8 393.778 281.743 C 392.764 280.644 391.995 279.483 391.442 278.437 C 390.191 276.036 389.865 274.147 389.865 274.147 L 426.336 274.216 C 426.336 274.216 426.035 276.103 424.743 278.488 Z " fill="rgb(54,54,79)"/><path d=" M 563.431 472.847 L 236.471 473.187 C 236.471 473.187 242.571 460.427 251.351 443.517 C 252.001 442.267 252.671 440.987 253.351 439.687 C 265.341 416.817 281.471 387.927 294.061 372.257 C 308.561 354.217 342.821 341.357 366.091 334.326 C 379.651 330.237 389.471 328.127 389.471 328.127 L 427.031 328.127 C 427.031 328.127 435.851 330.017 448.311 333.706 C 471.561 340.576 506.321 354.677 522.441 372.257 C 525.981 376.117 529.311 380.786 532.431 385.967 C 552.271 418.937 563.431 472.847 563.431 472.847 Z " fill="rgb(235,161,84)"/><g opacity="0.5"><path d=" M 563.431 472.847 L 236.471 473.187 C 236.471 473.187 242.571 460.427 251.351 443.517 C 414.512 491.479 500.493 412.878 520.115 391.602 C 523.283 388.166 527.681 386.098 532.352 385.969 L 532.431 385.967 C 552.271 418.937 563.431 472.847 563.431 472.847 Z " fill="rgb(217,117,31)"/></g><line x1="403.275" y1="246.471" x2="413.534" y2="246.471" vector-effect="non-scaling-stroke" stroke-width="4" stroke="rgb(227,181,170)" stroke-linejoin="miter" stroke-linecap="butt" stroke-miterlimit="3" style="mix-blend-mode:source-over;"/><path d=" M 448.311 333.702 C 407.837 378.232 366.092 334.331 366.092 334.331 C 379.653 330.232 389.475 328.122 389.475 328.122 L 427.034 328.122 C 427.034 328.122 435.852 330.018 448.311 333.702 Z " fill="rgb(227,181,170)"/><line x1="319.042" y1="422.464" x2="319.042" y2="473.247" vector-effect="non-scaling-stroke" stroke-width="3" stroke="rgb(220,131,30)" stroke-linejoin="miter" stroke-linecap="butt" stroke-miterlimit="3" style="mix-blend-mode:source-over;"/><line x1="319.042" y1="454.831" x2="305.406" y2="437.445" vector-effect="non-scaling-stroke" stroke-width="3" stroke="rgb(220,131,30)" stroke-linejoin="miter" stroke-linecap="butt" stroke-miterlimit="3" style="mix-blend-mode:source-over;"/><line x1="496.844" y1="422.464" x2="496.844" y2="473.247" vector-effect="non-scaling-stroke" stroke-width="3" stroke="rgb(220,131,30)" stroke-linejoin="miter" stroke-linecap="butt" stroke-miterlimit="3" style="mix-blend-mode:source-over;"/><line x1="496.844" y1="454.831" x2="508.951" y2="439.394" vector-effect="non-scaling-stroke" stroke-width="3" stroke="rgb(220,131,30)" stroke-linejoin="miter" stroke-linecap="butt" stroke-miterlimit="3" style="mix-blend-mode:source-over;"/><path d=" M 364.153 353.657 C 364.153 353.657 414.337 387.928 448.31 351.993" fill="none" vector-effect="non-scaling-stroke" stroke-width="3" stroke="rgb(220,131,30)" stroke-linejoin="miter" stroke-linecap="butt" stroke-miterlimit="3" style="mix-blend-mode:source-over;"/></g><clipPath id="_clipPath_VtH5JX4bkD9VpKwSz0kG8YfR6IgWRShf"><path d=" M 0 0 L 750 0 L 750 500 L 0 500 L 0 0 Z " fill="rgb(255,255,255)"/></clipPath><g clip-path="url(#_clipPath_VtH5JX4bkD9VpKwSz0kG8YfR6IgWRShf)"><path d=" M 364.927 179.592 C 376.195 132.233 489.082 137.444 468.076 229.651 C 461.783 257.271 415.775 166.865 376.068 189.045 C 373.1 190.703 369.401 190.274 366.919 187.95 C 364.639 185.815 364.204 182.63 364.927 179.592 Z " fill="rgb(46,46,46)"/><path d=" M 426.931 472.877 C 426.901 472.887 426.861 472.897 426.821 472.897 C 426.551 472.927 426.271 472.937 425.991 472.937 L 207.001 472.937 C 204.091 472.937 201.501 471.587 199.811 469.467 C 198.551 467.897 197.801 465.897 197.801 463.727 L 197.771 463.627 L 163.671 367.276 C 161.061 359.916 166.521 352.187 174.331 352.187 L 316.511 352.187 C 321.311 352.187 325.581 355.206 327.181 359.727 L 363.931 463.547 C 363.971 463.666 363.991 463.727 363.991 463.727 L 426.201 463.727 C 431.91 463.727 432.541 472.267 426.931 472.877 Z " fill="rgb(209,204,192)"/><path d=" M 263.616 410.352 C 267.212 420.807 263.146 431.682 254.535 434.643 C 245.925 437.605 236.03 431.53 232.435 421.076 C 228.84 410.621 232.905 399.746 241.516 396.785 C 250.126 393.824 260.021 399.898 263.616 410.352 Z " fill="rgb(255,255,255)"/><path d=" M 426.203 463.725 L 363.989 463.725 C 363.989 463.725 363.972 463.663 363.935 463.545 L 327.18 359.724 C 325.578 355.205 321.31 352.19 316.513 352.19 L 311.759 352.19 C 311.759 352.19 322.382 352.883 325.037 362.389 C 327.693 371.886 363.989 472.737 363.989 472.737 L 366.672 472.935 L 425.986 472.935 C 426.274 472.935 426.554 472.925 426.824 472.899 C 432.549 472.376 431.946 463.725 426.203 463.725 Z " fill="rgb(132,129,122)"/><g opacity="0.399994"><path d=" M 426.931 472.877 C 426.901 472.887 426.861 472.897 426.821 472.897 C 426.551 472.927 426.271 472.937 425.991 472.937 L 207.001 472.937 C 204.091 472.937 201.501 471.587 199.811 469.467 C 329.251 480.587 316.511 352.187 316.511 352.187 C 321.311 352.187 325.581 355.206 327.181 359.727 L 363.931 463.547 C 363.971 463.666 363.991 463.727 363.991 463.727 L 425.221 463.727 C 425.881 466.757 426.461 469.807 426.931 472.877 Z " fill="rgb(132,129,122)"/></g><path d=" M 166.533 409.331 L 166.533 412.555 C 160.707 413.221 159.282 418.147 159.282 424.144 L 159.282 426.127 C 159.282 432.124 160.707 437.051 166.533 437.718 L 166.533 440.925 L 55.143 440.925 C 50.573 440.925 46.869 437.222 46.869 432.65 L 46.869 417.621 C 46.869 413.05 50.573 409.331 55.143 409.331 L 166.533 409.331 Z " fill="rgb(75,113,149)"/><path d=" M 164.797 434.417 C 165.464 435.997 164.239 437.718 162.535 437.718 L 56.088 437.795 L 56.088 412.477 L 162.535 412.555 C 163.155 412.555 163.713 412.786 164.131 413.158 C 164.875 413.778 165.215 414.848 164.797 415.855 C 163.914 417.962 163.945 420.891 163.945 424.145 L 163.945 426.127 C 163.945 429.381 163.914 432.31 164.797 434.417 Z " fill="rgb(255,255,255)"/><g opacity="0.399994"><path d=" M 164.131 413.158 C 162.086 413.266 68.019 418.132 61.573 427.274 C 59.822 429.753 57.839 431.132 56.088 431.411 L 56.088 412.476 L 162.535 412.554 C 163.155 412.554 163.713 412.786 164.131 413.158 Z " fill="rgb(163,213,230)"/></g><path d=" M 61.573 440.931 L 52.213 440.931 C 49.262 440.931 46.869 438.538 46.869 435.587 L 46.869 414.683 C 46.869 411.732 49.262 409.339 52.213 409.339 L 61.573 409.339 L 61.573 440.931 Z " fill="rgb(75,113,149)"/><g opacity="0.399994"><path d=" M 164.797 434.417 C 165.464 435.997 164.239 437.717 162.535 437.717 L 141.284 437.732 C 158.166 435.813 157.111 421.943 157.111 421.943 C 157.297 421.277 143.771 413.143 144.004 412.539 L 162.535 412.555 C 163.155 412.555 163.713 412.786 164.131 413.158 C 164.875 413.778 165.215 414.848 164.797 415.855 C 163.914 417.962 163.945 420.891 163.945 424.144 L 163.945 426.127 C 163.945 429.381 163.914 432.31 164.797 434.417 Z " fill="rgb(163,213,230)"/></g><g opacity="0.399994"><path d=" M 163.945 425.569 L 61.754 425.569 L 61.754 423.288 L 163.945 423.288 L 163.945 425.569 Z " fill="rgb(163,213,230)"/></g><g opacity="0.399994"><path d=" M 163.945 420.431 L 61.754 420.431 L 61.754 418.149 L 163.945 418.149 L 163.945 420.431 Z " fill="rgb(163,213,230)"/></g><g opacity="0.399994"><path d=" M 163.945 432.107 L 61.754 432.107 L 61.754 429.825 L 163.945 429.825 L 163.945 432.107 Z " fill="rgb(163,213,230)"/></g><path d=" M 131.029 433.067 L 125.595 427.648 L 120.162 433.067 L 120.162 418.148 L 131.029 418.148 L 131.029 433.067 Z " fill="rgb(195,62,93)"/><path d=" M 178.448 440.817 L 178.448 444.04 C 172.622 444.706 171.197 449.633 171.197 455.63 L 171.197 457.613 C 171.197 463.609 172.622 468.537 178.448 469.203 L 178.448 472.411 L 67.058 472.411 C 62.488 472.411 58.784 468.707 58.784 464.136 L 58.784 449.106 C 58.784 444.536 62.488 440.817 67.058 440.817 L 178.448 440.817 Z " fill="rgb(195,62,93)"/><path d=" M 176.712 465.903 C 177.379 467.483 176.154 469.203 174.45 469.203 L 68.003 469.28 L 68.003 443.963 L 174.45 444.04 C 175.069 444.04 175.628 444.272 176.046 444.644 C 176.79 445.264 177.13 446.333 176.712 447.341 C 175.829 449.448 175.86 452.376 175.86 455.63 L 175.86 457.613 C 175.86 460.867 175.829 463.796 176.712 465.903 Z " fill="rgb(255,255,255)"/><g opacity="0.399994"><path d=" M 176.046 444.645 C 174.001 444.753 79.934 449.619 73.488 458.76 C 71.737 461.24 69.754 462.619 68.003 462.898 L 68.003 443.963 L 174.45 444.041 C 175.069 444.041 175.628 444.273 176.046 444.645 Z " fill="rgb(163,213,230)"/></g><path d=" M 73.488 472.417 L 64.129 472.417 C 61.177 472.417 58.785 470.024 58.785 467.073 L 58.785 446.168 C 58.785 443.217 61.177 440.824 64.129 440.824 L 73.488 440.824 L 73.488 472.417 Z " fill="rgb(195,62,93)"/><g opacity="0.399994"><path d=" M 176.712 465.903 C 177.379 467.483 176.154 469.203 174.45 469.203 L 153.199 469.218 C 170.081 467.299 169.026 453.429 169.026 453.429 C 169.212 452.763 155.686 444.629 155.919 444.024 L 174.45 444.04 C 175.069 444.04 175.628 444.272 176.046 444.644 C 176.79 445.264 177.13 446.333 176.712 447.341 C 175.829 449.448 175.86 452.376 175.86 455.63 L 175.86 457.613 C 175.86 460.867 175.829 463.796 176.712 465.903 Z " fill="rgb(163,213,230)"/></g><g opacity="0.399994"><path d=" M 175.86 457.056 L 73.669 457.056 L 73.669 454.775 L 175.86 454.775 L 175.86 457.056 Z " fill="rgb(163,213,230)"/></g><g opacity="0.399994"><path d=" M 175.86 451.917 L 73.669 451.917 L 73.669 449.635 L 175.86 449.635 L 175.86 451.917 Z " fill="rgb(163,213,230)"/></g><g opacity="0.399994"><path d=" M 175.86 463.594 L 73.669 463.594 L 73.669 461.312 L 175.86 461.312 L 175.86 463.594 Z " fill="rgb(163,213,230)"/></g><path d=" M 164.682 466.539 L 158.941 460.813 L 153.2 466.539 L 153.2 450.775 L 164.682 450.775 L 164.682 466.539 Z " fill="rgb(195,62,93)"/><path d=" M 717.851 486.137 L 717.851 488.447 C 717.851 495.507 712.121 501.227 705.061 501.227 L 51.021 501.227 C 45.071 501.227 40.071 497.166 38.641 491.677 C 38.641 491.666 38.641 491.657 38.631 491.647 C 38.371 490.616 38.231 489.547 38.231 488.447 L 38.231 486.137 C 38.231 479.076 43.951 473.357 51.021 473.357 L 705.061 473.357 C 712.121 473.357 717.851 479.076 717.851 486.137 Z " fill="rgb(119,140,163)"/><g opacity="0.5"><path d=" M 717.851 486.137 L 717.851 488.447 C 717.851 495.507 712.121 501.227 705.061 501.227 L 51.021 501.227 C 45.071 501.227 40.071 497.166 38.641 491.677 C 38.641 491.666 38.641 491.657 38.631 491.647 C 38.361 489.597 38.231 488.447 38.231 488.447 C 404.986 501.227 705.061 473.357 705.061 473.357 C 712.121 473.357 717.851 479.076 717.851 486.137 Z " fill="rgb(75,101,132)"/></g><path d=" M 684.295 143.744 C 679.737 143.744 676.042 140.05 676.042 135.491 C 676.042 130.933 679.737 127.238 684.295 127.238 C 688.854 127.238 692.548 130.933 692.548 135.491 C 692.548 140.05 688.854 143.744 684.295 143.744 Z  M 701.54 135.73 C 701.54 135.647 701.55 135.575 701.55 135.491 C 701.55 135.408 701.54 135.335 701.54 135.262 C 702.736 134.711 703.943 134.076 705.13 133.306 C 706.399 132.431 707.691 131.422 708.887 130.267 L 708.627 129.247 C 708.377 128.092 707.93 126.978 707.524 125.865 C 707.295 125.324 707.024 124.793 706.764 124.262 C 706.524 123.71 706.233 123.201 705.911 122.701 L 705.369 121.806 C 703.735 121.816 702.081 122.024 700.571 122.306 C 699.209 122.586 697.887 122.992 696.659 123.461 L 696.326 123.128 C 696.784 121.889 697.2 120.578 697.471 119.215 C 697.762 117.705 697.97 116.051 697.981 114.417 L 697.086 113.876 C 696.586 113.553 696.066 113.262 695.524 113.022 C 694.993 112.762 694.463 112.492 693.911 112.263 C 692.798 111.857 691.694 111.409 690.539 111.16 L 689.52 110.899 C 688.365 112.096 687.356 113.376 686.481 114.656 C 685.711 115.832 685.076 117.039 684.524 118.246 C 684.451 118.246 684.368 118.226 684.295 118.226 C 684.212 118.226 684.139 118.246 684.056 118.246 C 683.515 117.039 682.869 115.832 682.099 114.656 C 681.235 113.376 680.216 112.096 679.071 110.899 L 678.051 111.16 C 676.886 111.409 675.782 111.857 674.669 112.263 C 674.128 112.492 673.597 112.762 673.056 113.022 C 672.515 113.262 672.005 113.553 671.494 113.876 L 670.6 114.417 C 670.62 116.051 670.828 117.705 671.109 119.215 C 671.39 120.578 671.796 121.889 672.265 123.128 C 672.15 123.242 672.035 123.346 671.932 123.461 C 670.693 122.992 669.382 122.586 668.019 122.306 C 666.51 122.024 664.845 121.816 663.221 121.806 L 662.669 122.701 C 662.358 123.201 662.066 123.71 661.816 124.262 C 661.566 124.793 661.296 125.324 661.066 125.865 C 660.65 126.978 660.213 128.092 659.964 129.247 L 659.703 130.267 C 660.9 131.422 662.181 132.431 663.46 133.306 C 664.636 134.076 665.844 134.711 667.04 135.262 C 667.04 135.335 667.03 135.408 667.03 135.491 C 667.03 135.575 667.04 135.647 667.04 135.73 C 665.844 136.271 664.636 136.917 663.46 137.687 C 662.181 138.551 660.9 139.571 659.703 140.716 L 659.964 141.736 C 660.213 142.891 660.65 144.004 661.066 145.118 C 661.296 145.659 661.566 146.19 661.816 146.731 C 662.066 147.272 662.358 147.782 662.669 148.282 L 663.221 149.177 C 664.845 149.166 666.51 148.958 668.019 148.677 C 669.382 148.396 670.693 147.99 671.932 147.522 C 672.035 147.636 672.15 147.751 672.265 147.855 C 671.796 149.093 671.39 150.405 671.109 151.768 C 670.828 153.277 670.62 154.942 670.6 156.566 L 671.494 157.117 C 672.005 157.429 672.515 157.721 673.056 157.96 C 673.597 158.22 674.128 158.491 674.669 158.72 C 675.782 159.136 676.886 159.573 678.051 159.823 L 679.071 160.083 C 680.216 158.886 681.235 157.606 682.099 156.326 C 682.869 155.15 683.515 153.943 684.056 152.736 C 684.139 152.746 684.212 152.757 684.295 152.757 C 684.368 152.757 684.451 152.746 684.524 152.736 C 685.076 153.943 685.711 155.15 686.481 156.326 C 687.356 157.606 688.365 158.886 689.52 160.083 L 690.539 159.823 C 691.694 159.573 692.798 159.136 693.911 158.72 C 694.463 158.491 694.993 158.22 695.524 157.96 C 696.066 157.721 696.586 157.429 697.086 157.117 L 697.981 156.566 C 697.97 154.942 697.762 153.277 697.471 151.768 C 697.2 150.405 696.784 149.093 696.326 147.855 C 696.441 147.751 696.545 147.636 696.659 147.522 C 697.887 147.99 699.209 148.396 700.571 148.677 C 702.081 148.958 703.735 149.166 705.369 149.177 L 705.911 148.282 C 706.233 147.782 706.524 147.272 706.764 146.731 C 707.024 146.19 707.295 145.659 707.524 145.118 C 707.93 144.004 708.377 142.891 708.627 141.736 L 708.887 140.716 C 707.691 139.571 706.399 138.551 705.13 137.687 C 703.943 136.917 702.736 136.271 701.54 135.73 Z " fill="rgb(235,161,84)"/><path d=" M 660.638 148.229 L 604.95 148.229 L 604.95 203.071 L 620.414 203.071" fill="none" vector-effect="non-scaling-stroke" stroke-width="1" stroke-dasharray="4,4" stroke="rgb(253,120,61)" stroke-linejoin="miter" stroke-linecap="butt" stroke-miterlimit="3" style="mix-blend-mode:source-over;"/><path d=" M 652.354 237.896 L 621.74 237.896 L 621.74 232.424 L 652.354 232.424 L 652.354 237.896 Z " fill="rgb(255,255,255)"/><path d=" M 668.807 248.019 L 621.74 248.019 L 621.74 242.547 L 668.807 242.547 L 668.807 248.019 Z " fill="rgb(255,255,255)"/><path d=" M 637.77 258.142 L 621.74 258.142 L 621.74 252.67 L 637.77 252.67 L 637.77 258.142 Z " fill="rgb(255,255,255)"/><path d=" M 660.344 258.142 L 644.313 258.142 L 644.313 252.67 L 660.344 252.67 L 660.344 258.142 Z " fill="rgb(235,161,84)"/><path d=" M 689.101 258.142 L 666.08 258.142 L 666.08 252.67 L 689.101 252.67 L 689.101 258.142 Z " fill="rgb(235,161,84)"/><path d=" M 689.101 248.019 L 675.122 248.019 L 675.122 242.547 L 689.101 242.547 L 689.101 248.019 Z " fill="rgb(235,161,84)"/><path d=" M 689.101 237.896 L 658.487 237.896 L 658.487 232.424 L 689.101 232.424 L 689.101 237.896 Z " fill="rgb(235,161,84)"/><path d=" M 699.295 257.976 L 700.316 257.976 L 700.316 196.992 L 699.295 196.992 L 699.295 257.976 Z " fill="rgb(255,255,255)"/><path d=" M 653.695 204.858 L 622.214 204.858 L 622.214 199.232 L 653.695 199.232 L 653.695 204.858 Z " fill="rgb(255,255,255)"/><path d=" M 670.614 215.268 L 622.214 215.268 L 622.214 209.642 L 670.614 209.642 L 670.614 215.268 Z " fill="rgb(255,255,255)"/><path d=" M 638.699 225.677 L 622.214 225.677 L 622.214 220.051 L 638.699 220.051 L 638.699 225.677 Z " fill="rgb(255,255,255)"/><path d=" M 661.912 225.677 L 645.427 225.677 L 645.427 220.051 L 661.912 220.051 L 661.912 225.677 Z " fill="rgb(235,161,84)"/><path d=" M 691.482 225.677 L 667.81 225.677 L 667.81 220.051 L 691.482 220.051 L 691.482 225.677 Z " fill="rgb(235,161,84)"/><path d=" M 691.482 215.268 L 677.107 215.268 L 677.107 209.642 L 691.482 209.642 L 691.482 215.268 Z " fill="rgb(235,161,84)"/><path d=" M 691.482 204.858 L 660.001 204.858 L 660.001 199.232 L 691.482 199.232 L 691.482 204.858 Z " fill="rgb(235,161,84)"/><path d=" M 582.705 272.392 L 492.114 272.392 L 492.114 94.371 L 582.705 94.371 L 582.705 272.392 Z " fill="rgb(47,54,64)"/><path d=" M 570.449 139.457 L 502.433 139.457 L 502.433 132.233 L 570.449 132.233 L 570.449 139.457 Z " fill="rgb(255,255,255)"/><path d=" M 547.45 155.453 L 502.433 155.453 L 502.433 148.229 L 547.45 148.229 L 547.45 155.453 Z " fill="rgb(255,255,255)"/><path d=" M 570.449 155.453 L 554.136 155.453 L 554.136 148.229 L 570.449 148.229 L 570.449 155.453 Z " fill="rgb(235,161,84)"/><path d=" M 570.449 171.449 L 528.301 171.449 L 528.301 164.225 L 570.449 164.225 L 570.449 171.449 Z " fill="rgb(235,161,84)"/><path d=" M 522.173 171.449 L 502.434 171.449 L 502.434 164.225 L 522.173 164.225 L 522.173 171.449 Z " fill="rgb(255,255,255)"/><path d=" M 538.386 187.445 L 502.434 187.445 L 502.434 180.221 L 538.386 180.221 L 538.386 187.445 Z " fill="rgb(255,255,255)"/><path d=" M 570.449 187.445 L 543.923 187.445 L 543.923 180.221 L 570.449 180.221 L 570.449 187.445 Z " fill="rgb(235,161,84)"/><path d=" M 570.449 203.441 L 522.173 203.441 L 522.173 196.217 L 570.449 196.217 L 570.449 203.441 Z " fill="rgb(235,161,84)"/><path d=" M 517.027 203.441 L 502.433 203.441 L 502.433 196.217 L 517.027 196.217 L 517.027 203.441 Z " fill="rgb(255,255,255)"/><path d=" M 531.62 219.437 L 502.433 219.437 L 502.433 212.213 L 531.62 212.213 L 531.62 219.437 Z " fill="rgb(255,255,255)"/><path d=" M 570.449 219.437 L 536.441 219.437 L 536.441 212.213 L 570.449 212.213 L 570.449 219.437 Z " fill="rgb(235,161,84)"/><path d=" M 568.44 254.845 L 568.44 256.877 L 560.996 259.708 L 560.996 257.753 L 566.204 255.861 L 560.996 253.953 L 560.996 252.014 L 568.44 254.845 Z " fill="rgb(235,161,84)"/><path d=" M 547.275 252.014 L 547.275 253.953 L 542.067 255.861 L 547.275 257.753 L 547.275 259.708 L 539.831 256.877 L 539.831 254.845 L 547.275 252.014 Z " fill="rgb(235,161,84)"/><path d=" M 556.076 246.533 L 558.405 246.533 L 552.876 262.315 L 550.548 262.315 L 556.076 246.533 Z " fill="rgb(235,161,84)"/><path d=" M 534.259 115.916 L 534.259 118.58 L 524.502 122.29 L 524.502 119.728 L 531.327 117.248 L 524.502 114.748 L 524.502 112.206 L 534.259 115.916 Z " fill="rgb(235,161,84)"/><path d=" M 516.317 112.205 L 516.317 114.747 L 509.492 117.247 L 516.317 119.727 L 516.317 122.289 L 506.561 118.58 L 506.561 115.915 L 516.317 112.205 Z " fill="rgb(235,161,84)"/></g><g clip-path="url(#_clipPath_N0ItqY5uUmwsjJEyOvqtXt3ZOnuC6SsI)"><text transform="matrix(1.152,0,0,1.152,492.701,77.324)" style="font-family:'Montserrat';font-weight:700;font-size:16px;font-style:normal;font-variant-ligatures:none;fill:#000000;stroke:none;">HTML</text></g><defs><clipPath id="_clipPath_N0ItqY5uUmwsjJEyOvqtXt3ZOnuC6SsI"><rect x="0" y="0" width="50" height="19.504" transform="matrix(1.152,0,0,1.152,492.701,59.487)"/></clipPath></defs><clipPath id="_clipPath_krcPu5XbNZEdpGZo9O0LLV5VLVpJJJRK"><path d=" M 0 0 L 750 0 L 750 500 L 0 500 L 0 0 Z " fill="rgb(255,255,255)"/></clipPath><g clip-path="url(#_clipPath_krcPu5XbNZEdpGZo9O0LLV5VLVpJJJRK)"><path d=" M 63.398 307.381 C 55.45 310.926 46.101 307.344 42.556 299.396 C 40.448 294.669 40.862 289.446 43.216 285.247 C 43.231 285.218 43.249 285.185 43.268 285.151 C 44.873 282.327 47.355 279.975 50.542 278.554 C 51.138 278.288 51.746 278.062 52.356 277.878 C 52.42 277.856 52.484 277.836 52.549 277.818 C 55.706 276.893 58.981 277.009 61.958 278.004 C 61.97 278.005 61.982 278.009 61.994 278.014 C 64.544 278.872 66.871 280.377 68.711 282.423 C 69.787 283.615 70.695 284.996 71.383 286.539 C 71.811 287.499 72.133 288.478 72.357 289.464 C 73.999 296.659 70.386 304.265 63.398 307.381 Z  M 72.918 276.745 C 71.037 274.902 68.865 273.41 66.511 272.328 C 66.469 272.306 66.425 272.286 66.382 272.268 C 63.064 270.764 59.399 270.052 55.699 270.256 C 53.168 270.39 50.622 270.96 48.162 271.993 C 48.01 272.058 47.855 272.124 47.704 272.192 C 43.293 274.158 39.813 277.366 37.497 281.225 C 33.793 287.38 33.051 295.187 36.193 302.234 C 41.302 313.689 54.78 318.853 66.235 313.743 C 76.736 309.061 81.95 297.347 78.812 286.605 C 78.527 285.625 78.171 284.656 77.746 283.701 C 76.55 281.022 74.898 278.685 72.918 276.745 Z " fill="rgb(100,100,142)"/><path d=" M 66.511 272.328 C 68.865 273.41 71.037 274.901 72.918 276.745 C 74.898 278.684 76.551 281.021 77.746 283.701 C 78.172 284.656 78.528 285.625 78.812 286.604 L 72.358 289.464 C 72.134 288.477 71.811 287.499 71.384 286.539 C 70.696 284.996 69.787 283.615 68.712 282.423 C 66.871 280.377 64.544 278.872 61.994 278.014 L 61.958 278.004 L 66.382 272.267" fill="rgb(235,161,84)"/><line x1="66.511" y1="272.328" x2="61.994" y2="278.014"/><path d=" M 61.994 278.014 L 61.958 278.004 C 58.981 277.009 55.706 276.893 52.549 277.818 C 52.485 277.836 52.42 277.856 52.357 277.878 L 48.162 271.993 C 50.622 270.96 53.168 270.39 55.699 270.256 C 59.4 270.052 63.064 270.764 66.382 272.268" fill="rgb(184,61,93)"/><line x1="58.784" y1="315.715" x2="58.784" y2="317.715" vector-effect="non-scaling-stroke" stroke-width="1" stroke-dasharray="4,4" stroke="rgb(253,120,61)" stroke-linejoin="miter" stroke-linecap="butt" stroke-miterlimit="3" style="mix-blend-mode:source-over;"/><line x1="58.784" y1="321.542" x2="58.784" y2="350.248" vector-effect="non-scaling-stroke" stroke-width="1" stroke-dasharray="3.827,3.827" stroke="rgb(253,120,61)" stroke-linejoin="miter" stroke-linecap="butt" stroke-miterlimit="3" style="mix-blend-mode:source-over;"/><path d=" M 58.784 352.162 L 58.784 354.162 L 60.784 354.162" fill="none" vector-effect="non-scaling-stroke" stroke-width="1" stroke="rgb(253,120,61)" stroke-linejoin="miter" stroke-linecap="butt" stroke-miterlimit="3" style="mix-blend-mode:source-over;"/><line x1="64.899" y1="354.162" x2="120.46" y2="354.162" vector-effect="non-scaling-stroke" stroke-width="1" stroke-dasharray="4.116,4.116" stroke="rgb(253,120,61)" stroke-linejoin="miter" stroke-linecap="butt" stroke-miterlimit="3" style="mix-blend-mode:source-over;"/><path d=" M 122.518 354.162 L 124.518 354.162 L 124.518 352.162" fill="none" vector-effect="non-scaling-stroke" stroke-width="1" stroke="rgb(253,120,61)" stroke-linejoin="miter" stroke-linecap="butt" stroke-miterlimit="3" style="mix-blend-mode:source-over;"/><line x1="124.518" y1="348.267" x2="124.518" y2="319.057" vector-effect="non-scaling-stroke" stroke-width="1" stroke-dasharray="3.895,3.895" stroke="rgb(253,120,61)" stroke-linejoin="miter" stroke-linecap="butt" stroke-miterlimit="3" style="mix-blend-mode:source-over;"/><line x1="124.518" y1="317.108" x2="124.518" y2="315.108" vector-effect="non-scaling-stroke" stroke-width="1" stroke="rgb(253,120,61)" stroke-linejoin="miter" stroke-linecap="butt" stroke-miterlimit="3" style="mix-blend-mode:source-over;"/><path d=" M 293.375 313.215 L 100.527 313.215 L 100.527 83.297 L 293.375 83.297 L 293.375 313.215 Z " fill="rgb(47,54,64)"/><path d=" M 293.375 101.278 L 100.527 101.278 L 100.527 72.097 L 293.375 72.097 L 293.375 101.278 Z " fill="rgb(87,101,116)"/><path d=" M 271.06 297.4 L 271.06 299.294 L 264.125 301.93 L 264.125 300.11 L 268.977 298.346 L 264.125 296.569 L 264.125 294.762 L 271.06 297.4 Z " fill="rgb(235,161,84)"/><path d=" M 251.343 294.763 L 251.343 296.57 L 246.491 298.347 L 251.343 300.111 L 251.343 301.931 L 244.408 299.294 L 244.408 297.401 L 251.343 294.763 Z " fill="rgb(235,161,84)"/></g><g clip-path="url(#_clipPath_75zCvwTVAez3dCatpUsHee5ddi2nYwIA)"><text transform="matrix(0.976,0,0,0.976,255.296,301.113)" style="font-family:'Montserrat';font-weight:400;font-size:16px;font-style:normal;font-variant-ligatures:none;fill:[Object GRGBColor];stroke:none;">/</text></g><defs><clipPath id="_clipPath_75zCvwTVAez3dCatpUsHee5ddi2nYwIA"><rect x="0" y="0" width="8" height="19.504" transform="matrix(0.976,0,0,0.976,254.906,286.001)"/></clipPath></defs><clipPath id="_clipPath_LhlxY8d9K9jKsbSE9op60UyKk825lQVc"><path d=" M 0 0 L 750 0 L 750 500 L 0 500 L 0 0 Z " fill="rgb(255,255,255)"/></clipPath><g clip-path="url(#_clipPath_LhlxY8d9K9jKsbSE9op60UyKk825lQVc)"><path d=" M 146.225 119.88 L 146.225 122.242 L 137.577 125.53 L 137.577 123.259 L 143.627 121.061 L 137.577 118.845 L 137.577 116.591 L 146.225 119.88 Z " fill="rgb(235,161,84)"/><path d=" M 130.322 116.592 L 130.322 118.845 L 124.272 121.062 L 130.322 123.26 L 130.322 125.531 L 121.674 122.243 L 121.674 119.881 L 130.322 116.592 Z " fill="rgb(235,161,84)"/></g><g clip-path="url(#_clipPath_7AGwWTTizNkUhjZX4plXSO7JJqd9LAvF)"><text transform="matrix(0.865,0,0,0.865,112.229,91.378)" style="font-family:'Montserrat';font-weight:700;font-size:16px;font-style:normal;font-variant-ligatures:none;fill:#000000;stroke:none;">WEB DEVELOPING</text></g><defs><clipPath id="_clipPath_7AGwWTTizNkUhjZX4plXSO7JJqd9LAvF"><rect x="0" y="0" width="160" height="19.504" transform="matrix(0.865,0,0,0.865,112.229,77.977)"/></clipPath></defs><clipPath id="_clipPath_h1H6hSDBbCsV7A7xTnIYU5hyEgcfME3Y"><path d=" M 0 0 L 750 0 L 750 500 L 0 500 L 0 0 Z " fill="rgb(255,255,255)"/></clipPath><g clip-path="url(#_clipPath_h1H6hSDBbCsV7A7xTnIYU5hyEgcfME3Y)"><path d=" M 190.555 149.935 L 133.867 149.935 L 133.867 139.554 L 190.555 139.554 L 190.555 149.935 Z " fill="rgb(84,179,205)"/><path d=" M 226.886 149.935 L 198.542 149.935 L 198.542 139.554 L 226.886 139.554 L 226.886 149.935 Z " fill="rgb(235,161,84)"/><path d=" M 272.452 149.935 L 233.414 149.935 L 233.414 139.554 L 272.452 139.554 L 272.452 149.935 Z " fill="rgb(255,255,255)"/><path d=" M 160.325 168.469 L 133.868 168.469 L 133.868 158.088 L 160.325 158.088 L 160.325 168.469 Z " fill="rgb(84,179,205)"/><path d=" M 212.714 168.469 L 167.524 168.469 L 167.524 158.088 L 212.714 158.088 L 212.714 168.469 Z " fill="rgb(235,161,84)"/><path d=" M 272.452 168.469 L 220.078 168.469 L 220.078 158.088 L 272.452 158.088 L 272.452 168.469 Z " fill="rgb(255,255,255)"/><path d=" M 168.694 187.003 L 133.868 187.003 L 133.868 176.621 L 168.694 176.621 L 168.694 187.003 Z " fill="rgb(84,179,205)"/><path d=" M 239.875 187.003 L 174.363 187.003 L 174.363 176.621 L 239.875 176.621 L 239.875 187.003 Z " fill="rgb(235,161,84)"/><path d=" M 272.452 187.003 L 246.895 187.003 L 246.895 176.621 L 272.452 176.621 L 272.452 187.003 Z " fill="rgb(255,255,255)"/><path d=" M 177.783 205.537 L 133.868 205.537 L 133.868 195.156 L 177.783 195.156 L 177.783 205.537 Z " fill="rgb(84,179,205)"/><path d=" M 226.886 205.537 L 184.262 205.537 L 184.262 195.156 L 226.886 195.156 L 226.886 205.537 Z " fill="rgb(235,161,84)"/><path d=" M 272.452 205.537 L 233.414 205.537 L 233.414 195.156 L 272.452 195.156 L 272.452 205.537 Z " fill="rgb(255,255,255)"/><path d=" M 153.125 224.071 L 133.867 224.071 L 133.867 213.69 L 153.125 213.69 L 153.125 224.071 Z " fill="rgb(84,179,205)"/><path d=" M 197.76 224.071 L 159.605 224.071 L 159.605 213.69 L 197.76 213.69 L 197.76 224.071 Z " fill="rgb(235,161,84)"/><path d=" M 272.452 224.071 L 203.7 224.071 L 203.7 213.69 L 272.452 213.69 L 272.452 224.071 Z " fill="rgb(255,255,255)"/><path d=" M 188.941 242.605 L 133.867 242.605 L 133.867 232.224 L 188.941 232.224 L 188.941 242.605 Z " fill="rgb(84,179,205)"/><path d=" M 212.714 242.605 L 195.781 242.605 L 195.781 232.224 L 212.714 232.224 L 212.714 242.605 Z " fill="rgb(235,161,84)"/><path d=" M 272.452 242.605 L 220.078 242.605 L 220.078 232.224 L 272.452 232.224 L 272.452 242.605 Z " fill="rgb(255,255,255)"/><path d=" M 205.574 261.14 L 133.868 261.14 L 133.868 250.758 L 205.574 250.758 L 205.574 261.14 Z " fill="rgb(84,179,205)"/><path d=" M 240.955 261.14 L 211.619 261.14 L 211.619 250.758 L 240.955 250.758 L 240.955 261.14 Z " fill="rgb(235,161,84)"/><path d=" M 272.452 261.14 L 246.895 261.14 L 246.895 250.758 L 272.452 250.758 L 272.452 261.14 Z " fill="rgb(255,255,255)"/><path d=" M 155.825 279.673 L 133.867 279.673 L 133.867 269.292 L 155.825 269.292 L 155.825 279.673 Z " fill="rgb(84,179,205)"/><path d=" M 188.941 279.673 L 162.211 279.673 L 162.211 269.292 L 188.941 269.292 L 188.941 279.673 Z " fill="rgb(235,161,84)"/><path d=" M 272.452 279.673 L 195.781 279.673 L 195.781 269.292 L 272.452 269.292 L 272.452 279.673 Z " fill="rgb(255,255,255)"/><path d=" M 282.144 279.673 L 280.033 279.673 L 280.033 139.554 L 282.144 139.554 L 282.144 279.673 Z " fill="rgb(255,255,255)"/><path d=" M 121.232 144.745 C 121.232 147.612 118.908 149.935 116.041 149.935 C 113.174 149.935 110.85 147.612 110.85 144.745 C 110.85 141.878 113.174 139.554 116.041 139.554 C 118.908 139.554 121.232 141.878 121.232 144.745 Z " fill="rgb(255,255,255)"/><path d=" M 121.232 163.278 C 121.232 166.145 118.908 168.469 116.041 168.469 C 113.174 168.469 110.85 166.145 110.85 163.278 C 110.85 160.411 113.174 158.088 116.041 158.088 C 118.908 158.088 121.232 160.411 121.232 163.278 Z " fill="rgb(255,255,255)"/><path d=" M 121.232 181.813 C 121.232 184.68 118.908 187.004 116.041 187.004 C 113.174 187.004 110.85 184.68 110.85 181.813 C 110.85 178.946 113.174 176.622 116.041 176.622 C 118.908 176.622 121.232 178.946 121.232 181.813 Z " fill="rgb(255,255,255)"/><path d=" M 121.232 200.347 C 121.232 203.214 118.908 205.537 116.041 205.537 C 113.174 205.537 110.85 203.214 110.85 200.347 C 110.85 197.48 113.174 195.156 116.041 195.156 C 118.908 195.156 121.232 197.48 121.232 200.347 Z " fill="rgb(255,255,255)"/><path d=" M 121.232 218.88 C 121.232 221.747 118.908 224.071 116.041 224.071 C 113.174 224.071 110.85 221.747 110.85 218.88 C 110.85 216.013 113.174 213.69 116.041 213.69 C 118.908 213.69 121.232 216.013 121.232 218.88 Z " fill="rgb(255,255,255)"/><path d=" M 121.232 237.415 C 121.232 240.282 118.908 242.605 116.041 242.605 C 113.174 242.605 110.85 240.282 110.85 237.415 C 110.85 234.548 113.174 232.224 116.041 232.224 C 118.908 232.224 121.232 234.548 121.232 237.415 Z " fill="rgb(255,255,255)"/><path d=" M 121.232 255.948 C 121.232 258.815 118.908 261.139 116.041 261.139 C 113.174 261.139 110.85 258.815 110.85 255.948 C 110.85 253.082 113.174 250.758 116.041 250.758 C 118.908 250.758 121.232 253.082 121.232 255.948 Z " fill="rgb(255,255,255)"/><path d=" M 121.232 274.482 C 121.232 277.349 118.908 279.672 116.041 279.672 C 113.174 279.672 110.85 277.349 110.85 274.482 C 110.85 271.616 113.174 269.292 116.041 269.292 C 118.908 269.292 121.232 271.616 121.232 274.482 Z " fill="rgb(255,255,255)"/><path d=" M 284.786 88.297 C 284.786 91.221 282.416 93.591 279.492 93.591 C 276.568 93.591 274.198 91.221 274.198 88.297 C 274.198 85.373 276.568 83.003 279.492 83.003 C 282.416 83.003 284.786 85.373 284.786 88.297 Z " fill="rgb(184,61,93)"/><path d=" M 271.699 88.19 C 271.699 91.136 269.311 93.524 266.365 93.524 C 263.419 93.524 261.031 91.136 261.031 88.19 C 261.031 85.244 263.419 82.856 266.365 82.856 C 269.311 82.856 271.699 85.244 271.699 88.19 Z " fill="rgb(255,255,255)"/><path d=" M 337.724 115.566 L 319.042 115.566 L 319.042 110.332 L 337.724 110.332 L 337.724 115.566 Z " fill="rgb(71,84,124)"/><path d=" M 376.195 106.247 L 319.042 106.247 L 319.042 101.013 L 376.195 101.013 L 376.195 106.247 Z " fill="rgb(100,100,142)"/><line x1="352.062" y1="116.563" x2="352.062" y2="118.563" vector-effect="non-scaling-stroke" stroke-width="1" stroke="rgb(253,120,61)" stroke-linejoin="miter" stroke-linecap="butt" stroke-miterlimit="3" style="mix-blend-mode:source-over;"/><line x1="352.062" y1="121.939" x2="352.062" y2="133.756" vector-effect="non-scaling-stroke" stroke-width="1" stroke-dasharray="3.376,3.376" stroke="rgb(253,120,61)" stroke-linejoin="miter" stroke-linecap="butt" stroke-miterlimit="3" style="mix-blend-mode:source-over;"/><path d=" M 352.062 135.444 L 352.062 137.444 L 354.062 137.444" fill="none" vector-effect="non-scaling-stroke" stroke-width="1" stroke="rgb(253,120,61)" stroke-linejoin="miter" stroke-linecap="butt" stroke-miterlimit="3" style="mix-blend-mode:source-over;"/><line x1="357.871" y1="137.444" x2="416.912" y2="137.444" vector-effect="non-scaling-stroke" stroke-width="1" stroke-dasharray="3.809,3.809" stroke="rgb(253,120,61)" stroke-linejoin="miter" stroke-linecap="butt" stroke-miterlimit="3" style="mix-blend-mode:source-over;"/><path d=" M 418.816 137.444 L 420.816 137.444 L 420.816 135.444" fill="none" vector-effect="non-scaling-stroke" stroke-width="1" stroke="rgb(253,120,61)" stroke-linejoin="miter" stroke-linecap="butt" stroke-miterlimit="3" style="mix-blend-mode:source-over;"/><line x1="420.816" y1="131.387" x2="420.816" y2="125.302" vector-effect="non-scaling-stroke" stroke-width="1" stroke-dasharray="4.057,4.057" stroke="rgb(253,120,61)" stroke-linejoin="miter" stroke-linecap="butt" stroke-miterlimit="3" style="mix-blend-mode:source-over;"/><line x1="420.816" y1="123.273" x2="420.816" y2="121.273" vector-effect="non-scaling-stroke" stroke-width="1" stroke="rgb(253,120,61)" stroke-linejoin="miter" stroke-linecap="butt" stroke-miterlimit="3" style="mix-blend-mode:source-over;"/></g><g clip-path="url(#_clipPath_lJFgsAYiIWTyYBD6jEdWnKokEsk7yCE4)"><text transform="matrix(1.152,0,0,1.152,319.042,84.647)" style="font-family:'Montserrat';font-weight:700;font-size:16px;font-style:normal;font-variant-ligatures:none;word-spacing:0.01;letter-spacing:-0.01;fill:#000000;stroke:none;">CSS</text></g><defs><clipPath id="_clipPath_lJFgsAYiIWTyYBD6jEdWnKokEsk7yCE4"><rect x="0" y="0" width="35.01" height="19.504" transform="matrix(1.152,0,0,1.152,319.042,66.81)"/></clipPath></defs><clipPath id="_clipPath_yGLga61b1Vkh5O41dB5gJyHLQoI0RDe9"><path d=" M 0 0 L 750 0 L 750 500 L 0 500 L 0 0 Z " fill="rgb(255,255,255)"/></clipPath><g clip-path="url(#_clipPath_yGLga61b1Vkh5O41dB5gJyHLQoI0RDe9)"><path d=" M 425.277 114.371 C 419.761 116.827 413.276 114.344 410.82 108.829 C 410.619 108.378 410.453 107.92 410.314 107.455 C 409.461 104.569 409.87 101.524 411.278 99.02 C 411.285 98.999 411.298 98.971 411.313 98.951 C 412.423 96.995 414.143 95.357 416.356 94.372 C 416.772 94.192 417.188 94.032 417.618 93.908 C 417.66 93.887 417.702 93.872 417.75 93.866 C 419.942 93.221 422.211 93.304 424.278 93.991 C 424.285 93.991 424.292 93.997 424.298 93.997 C 426.067 94.594 427.684 95.642 428.96 97.057 C 429.71 97.882 430.334 98.839 430.812 99.914 C 431.111 100.58 431.333 101.261 431.492 101.94 C 431.916 103.799 431.832 105.693 431.312 107.455 C 430.445 110.431 428.322 113.012 425.277 114.371 Z  M 435.966 99.956 C 435.772 99.276 435.522 98.604 435.231 97.945 C 434.399 96.085 433.254 94.462 431.881 93.117 C 430.577 91.84 429.064 90.807 427.434 90.058 C 427.406 90.037 427.372 90.023 427.343 90.016 C 425.041 88.968 422.502 88.476 419.935 88.615 C 418.18 88.712 416.411 89.107 414.705 89.822 C 414.601 89.87 414.49 89.912 414.385 89.96 C 411.327 91.327 408.913 93.547 407.31 96.225 C 405.312 99.54 404.556 103.543 405.34 107.455 C 405.562 108.586 405.916 109.703 406.401 110.799 C 409.946 118.748 419.297 122.328 427.24 118.783 C 432.089 116.619 435.314 112.304 436.286 107.455 C 436.778 105.02 436.695 102.454 435.966 99.956 Z " fill="rgb(100,100,142)"/><path d=" M 436.286 107.455 L 431.312 107.455 C 431.832 105.693 431.916 103.799 431.492 101.94 C 431.333 101.261 431.111 100.58 430.812 99.914 C 430.334 98.839 429.71 97.882 428.96 97.057 C 427.684 95.642 426.067 94.594 424.299 93.997 C 424.292 93.997 424.285 93.991 424.278 93.991 C 422.211 93.304 419.942 93.221 417.75 93.866 C 417.702 93.872 417.66 93.887 417.618 93.908 C 417.188 94.032 416.772 94.192 416.356 94.372 C 414.143 95.357 412.423 96.995 411.313 98.951 C 411.299 98.971 411.285 98.999 411.278 99.02 C 409.87 101.524 409.461 104.569 410.314 107.455 L 405.34 107.455 C 404.557 103.543 405.312 99.54 407.31 96.225 C 408.913 93.547 411.327 91.327 414.386 89.96 C 414.49 89.912 414.601 89.87 414.705 89.822 C 416.411 89.107 418.181 88.712 419.935 88.615 C 422.502 88.476 425.041 88.968 427.344 90.016 C 427.372 90.023 427.406 90.037 427.434 90.058 C 429.064 90.807 430.577 91.84 431.881 93.117 C 433.254 94.462 434.399 96.085 435.231 97.945 C 435.522 98.604 435.772 99.276 435.967 99.956 C 436.695 102.454 436.778 105.02 436.286 107.455 Z " fill="rgb(184,61,93)"/><path d=" M 376.195 115.566 L 341.467 115.566 L 341.467 110.332 L 376.195 110.332 L 376.195 115.566 Z " fill="rgb(100,100,142)"/></g><g clip-path="url(#_clipPath_9wUddESPEYsHF2gsGgvRSMpbJSbhLCmD)"><text transform="matrix(1.651,0,0,1.651,48.661,90.726)" style="font-family:'Montserrat';font-weight:700;font-size:16px;font-style:normal;font-variant-ligatures:none;fill:#000000;stroke:none;">{ }</text></g><defs><clipPath id="_clipPath_9wUddESPEYsHF2gsGgvRSMpbJSbhLCmD"><rect x="0" y="0" width="20" height="19.504" transform="matrix(1.651,0,0,1.651,48.661,65.161)"/></clipPath></defs><clipPath id="_clipPath_nXyEZ4k3ahJx5lq27rv5WTRLPAstBWaq"><path d=" M 0 0 L 750 0 L 750 500 L 0 500 L 0 0 Z " fill="rgb(255,255,255)"/></clipPath><g clip-path="url(#_clipPath_nXyEZ4k3ahJx5lq27rv5WTRLPAstBWaq)"><path d=" M 69.054 133.748 L 48.514 133.748 L 48.514 123.946 L 69.054 123.946 L 69.054 133.748 Z " fill="rgb(255,255,255)"/><path d=" M 69.054 150.872 L 48.514 150.872 L 48.514 141.07 L 69.054 141.07 L 69.054 150.872 Z " fill="rgb(255,255,255)"/><path d=" M 69.054 167.997 L 48.514 167.997 L 48.514 158.195 L 69.054 158.195 L 69.054 167.997 Z " fill="rgb(235,161,84)"/><path d=" M 69.054 185.122 L 48.514 185.122 L 48.514 175.32 L 69.054 175.32 L 69.054 185.122 Z " fill="rgb(235,161,84)"/><path d=" M 69.054 202.247 L 48.514 202.247 L 48.514 192.445 L 69.054 192.445 L 69.054 202.247 Z " fill="rgb(235,161,84)"/><path d=" M 69.054 219.372 L 48.514 219.372 L 48.514 209.57 L 69.054 209.57 L 69.054 219.372 Z " fill="rgb(235,161,84)"/><path d=" M 69.054 236.496 L 48.514 236.496 L 48.514 226.694 L 69.054 226.694 L 69.054 236.496 Z " fill="rgb(235,161,84)"/><path d=" M 634.745 323.541 C 630.847 323.541 627.687 320.382 627.687 316.483 C 627.687 312.586 630.847 309.427 634.745 309.427 C 638.642 309.427 641.802 312.586 641.802 316.483 C 641.802 320.382 638.642 323.541 634.745 323.541 Z  M 649.491 316.688 C 649.491 316.617 649.5 316.555 649.5 316.483 C 649.5 316.412 649.491 316.35 649.491 316.288 C 650.515 315.816 651.547 315.273 652.561 314.615 C 653.647 313.867 654.751 313.004 655.774 312.016 L 655.552 311.144 C 655.338 310.156 654.956 309.204 654.608 308.252 C 654.412 307.789 654.182 307.335 653.959 306.881 C 653.754 306.409 653.505 305.974 653.229 305.546 L 652.766 304.78 C 651.369 304.79 649.954 304.968 648.663 305.208 C 647.498 305.448 646.368 305.795 645.317 306.195 L 645.032 305.911 C 645.424 304.852 645.78 303.73 646.012 302.564 C 646.261 301.274 646.438 299.859 646.447 298.462 L 645.683 297.999 C 645.255 297.724 644.81 297.475 644.348 297.27 C 643.893 297.047 643.439 296.815 642.968 296.62 C 642.016 296.272 641.072 295.89 640.085 295.677 L 639.213 295.454 C 638.224 296.478 637.361 297.572 636.613 298.667 C 635.955 299.673 635.412 300.705 634.94 301.737 C 634.878 301.737 634.807 301.72 634.745 301.72 C 634.674 301.72 634.611 301.737 634.54 301.737 C 634.077 300.705 633.525 299.673 632.867 298.667 C 632.129 297.572 631.257 296.478 630.277 295.454 L 629.405 295.677 C 628.408 295.89 627.465 296.272 626.513 296.62 C 626.05 296.815 625.596 297.047 625.133 297.27 C 624.671 297.475 624.234 297.724 623.798 297.999 L 623.033 298.462 C 623.051 299.859 623.228 301.274 623.47 302.564 C 623.709 303.73 624.057 304.852 624.457 305.911 C 624.359 306.009 624.261 306.098 624.173 306.195 C 623.113 305.795 621.992 305.448 620.826 305.208 C 619.536 304.968 618.111 304.79 616.724 304.78 L 616.252 305.546 C 615.984 305.974 615.735 306.409 615.522 306.881 C 615.308 307.335 615.077 307.789 614.881 308.252 C 614.525 309.204 614.151 310.156 613.938 311.144 L 613.716 312.016 C 614.739 313.004 615.834 313.867 616.928 314.615 C 617.933 315.273 618.966 315.816 619.989 316.288 C 619.989 316.35 619.98 316.412 619.98 316.483 C 619.98 316.555 619.989 316.617 619.989 316.688 C 618.966 317.151 617.933 317.703 616.928 318.361 C 615.834 319.1 614.739 319.972 613.716 320.951 L 613.938 321.823 C 614.151 322.812 614.525 323.764 614.881 324.716 C 615.077 325.179 615.308 325.632 615.522 326.095 C 615.735 326.558 615.984 326.994 616.252 327.421 L 616.724 328.187 C 618.111 328.178 619.536 327.999 620.826 327.759 C 621.992 327.519 623.113 327.172 624.173 326.771 C 624.261 326.869 624.359 326.967 624.457 327.057 C 624.057 328.115 623.709 329.236 623.47 330.402 C 623.228 331.692 623.051 333.116 623.033 334.505 L 623.798 334.977 C 624.234 335.243 624.671 335.493 625.133 335.697 C 625.596 335.92 626.05 336.151 626.513 336.348 C 627.465 336.703 628.408 337.077 629.405 337.29 L 630.277 337.513 C 631.257 336.489 632.129 335.395 632.867 334.3 C 633.525 333.295 634.077 332.262 634.54 331.23 C 634.611 331.239 634.674 331.248 634.745 331.248 C 634.807 331.248 634.878 331.239 634.94 331.23 C 635.412 332.262 635.955 333.295 636.613 334.3 C 637.361 335.395 638.224 336.489 639.213 337.513 L 640.085 337.29 C 641.072 337.077 642.016 336.703 642.968 336.348 C 643.439 336.151 643.893 335.92 644.348 335.697 C 644.81 335.493 645.255 335.243 645.683 334.977 L 646.447 334.505 C 646.438 333.116 646.261 331.692 646.012 330.402 C 645.78 329.236 645.424 328.115 645.032 327.057 C 645.131 326.967 645.22 326.869 645.317 326.771 C 646.368 327.172 647.498 327.519 648.663 327.759 C 649.954 327.999 651.369 328.178 652.766 328.187 L 653.229 327.421 C 653.505 326.994 653.754 326.558 653.959 326.095 C 654.182 325.632 654.412 325.179 654.608 324.716 C 654.956 323.764 655.338 322.812 655.552 321.823 L 655.774 320.951 C 654.751 319.972 653.647 319.1 652.561 318.361 C 651.547 317.703 650.515 317.151 649.491 316.688 Z " fill="rgb(50,50,71)"/><path d=" M 584.639 332.447 L 575.322 332.447 L 575.322 290.479 L 584.639 290.479 L 584.639 332.447 Z " fill="rgb(184,61,93)"/><path d=" M 571.564 332.447 L 561.576 332.447 L 561.576 308.97 L 571.564 308.97 L 571.564 332.447 Z " fill="rgb(100,100,142)"/><path d=" M 557.729 332.447 L 547.741 332.447 L 547.741 316.483 L 557.729 316.483 L 557.729 332.447 Z " fill="rgb(253,120,61)"/><line x1="545.974" y1="325.762" x2="543.974" y2="325.762" vector-effect="non-scaling-stroke" stroke-width="1" stroke="rgb(253,120,61)" stroke-linejoin="miter" stroke-linecap="butt" stroke-miterlimit="3" style="mix-blend-mode:source-over;"/><line x1="538.902" y1="325.762" x2="531.296" y2="325.762" vector-effect="non-scaling-stroke" stroke-width="1" stroke-dasharray="5.071,5.071" stroke="rgb(253,120,61)" stroke-linejoin="miter" stroke-linecap="butt" stroke-miterlimit="3" style="mix-blend-mode:source-over;"/><path d=" M 528.761 325.762 L 526.761 325.762 L 526.761 327.762" fill="none" vector-effect="non-scaling-stroke" stroke-width="1" stroke="rgb(253,120,61)" stroke-linejoin="miter" stroke-linecap="butt" stroke-miterlimit="3" style="mix-blend-mode:source-over;"/><line x1="526.761" y1="331.503" x2="526.761" y2="359.557" vector-effect="non-scaling-stroke" stroke-width="1" stroke-dasharray="3.74,3.74" stroke="rgb(253,120,61)" stroke-linejoin="miter" stroke-linecap="butt" stroke-miterlimit="3" style="mix-blend-mode:source-over;"/><path d=" M 526.761 361.427 L 526.761 363.427 L 528.761 363.427" fill="none" vector-effect="non-scaling-stroke" stroke-width="1" stroke="rgb(253,120,61)" stroke-linejoin="miter" stroke-linecap="butt" stroke-miterlimit="3" style="mix-blend-mode:source-over;"/><line x1="532.156" y1="363.427" x2="544.042" y2="363.427" vector-effect="non-scaling-stroke" stroke-width="1" stroke-dasharray="3.396,3.396" stroke="rgb(253,120,61)" stroke-linejoin="miter" stroke-linecap="butt" stroke-miterlimit="3" style="mix-blend-mode:source-over;"/><line x1="545.739" y1="363.427" x2="547.739" y2="363.427" vector-effect="non-scaling-stroke" stroke-width="1" stroke="rgb(253,120,61)" stroke-linejoin="miter" stroke-linecap="butt" stroke-miterlimit="3" style="mix-blend-mode:source-over;"/><path d=" M 577.333 366.285 L 550.903 366.285 L 550.903 361.561 L 577.333 361.561 L 577.333 366.285 Z " fill="rgb(255,255,255)"/><path d=" M 569.184 375.024 L 550.904 375.024 L 550.904 370.3 L 569.184 370.3 L 569.184 375.024 Z " fill="rgb(255,255,255)"/><path d=" M 574.042 383.764 L 550.903 383.764 L 550.903 379.04 L 574.042 379.04 L 574.042 383.764 Z " fill="rgb(255,255,255)"/><path d=" M 584.23 383.764 L 578.829 383.764 L 578.829 379.04 L 584.23 379.04 L 584.23 383.764 Z " fill="rgb(235,161,84)"/><path d=" M 609.057 383.764 L 589.183 383.764 L 589.183 379.04 L 609.057 379.04 L 609.057 383.764 Z " fill="rgb(235,161,84)"/><path d=" M 609.057 375.024 L 575.042 375.024 L 575.042 370.3 L 609.057 370.3 L 609.057 375.024 Z " fill="rgb(235,161,84)"/><path d=" M 609.057 366.285 L 582.627 366.285 L 582.627 361.561 L 609.057 361.561 L 609.057 366.285 Z " fill="rgb(235,161,84)"/><path d=" M 699.692 322.233 L 682.278 322.233 L 682.278 313.922 L 699.692 313.922 L 699.692 322.233 Z " fill="rgb(184,61,93)"/><path d=" M 699.692 336.753 L 682.278 336.753 L 682.278 328.442 L 699.692 328.442 L 699.692 336.753 Z " fill="rgb(184,61,93)"/><path d=" M 699.692 351.272 L 682.278 351.272 L 682.278 342.961 L 699.692 342.961 L 699.692 351.272 Z " fill="rgb(184,61,93)"/><path d=" M 699.692 365.791 L 682.278 365.791 L 682.278 357.48 L 699.692 357.48 L 699.692 365.791 Z " fill="rgb(184,61,93)"/><path d=" M 699.692 380.311 L 682.278 380.311 L 682.278 372 L 699.692 372 L 699.692 380.311 Z " fill="rgb(255,255,255)"/><path d=" M 699.692 394.83 L 682.278 394.83 L 682.278 386.519 L 699.692 386.519 L 699.692 394.83 Z " fill="rgb(255,255,255)"/><path d=" M 699.692 409.349 L 682.278 409.349 L 682.278 401.038 L 699.692 401.038 L 699.692 409.349 Z " fill="rgb(255,255,255)"/><path d=" M 623.766 433.163 C 617.257 433.653 611.809 432.106 607.257 429.281 C 588.886 417.913 585.054 385.851 584.789 383.443 C 584.951 384.183 586.761 388.102 605.856 400.948 C 607.445 402.02 608.9 403.107 610.228 404.207 C 610.228 404.207 610.251 404.226 610.297 404.26 C 626.937 418.04 623.766 433.163 623.766 433.163 Z " fill="rgb(12,128,104)"/><path d=" M 584.775 383.302 C 584.775 383.302 601.929 425.397 620.959 429.827" fill="none" vector-effect="non-scaling-stroke" stroke-width="1" stroke="rgb(10,109,83)" stroke-linejoin="miter" stroke-linecap="butt" stroke-miterlimit="3" style="mix-blend-mode:source-over;"/><g opacity="0.5"><path d=" M 623.766 433.163 C 617.257 433.653 611.809 432.106 607.257 429.281 C 610.913 420.628 610.228 404.207 610.228 404.207 C 610.228 404.207 610.251 404.226 610.297 404.26 C 626.937 418.04 623.766 433.163 623.766 433.163 Z " fill="rgb(10,109,83)"/></g><path d=" M 672.525 385.786 C 672.453 386.234 672.196 387.789 671.683 390.078 L 671.683 390.086 C 668.972 402.223 659.19 434.883 632.871 431.609 C 632.871 431.609 632.426 428.807 633.315 424.614 C 634.617 418.449 638.801 409.272 651.532 401.576 C 670.423 390.151 672.334 386.483 672.525 385.786 Z " fill="rgb(12,128,104)"/><path d=" M 671.684 388.379 C 671.684 388.379 658.176 423.376 634.746 430.512" fill="none" vector-effect="non-scaling-stroke" stroke-width="1" stroke="rgb(10,109,83)" stroke-linejoin="miter" stroke-linecap="butt" stroke-miterlimit="3" style="mix-blend-mode:source-over;"/><g opacity="0.5"><path d=" M 671.684 390.078 L 671.684 390.086 C 668.973 402.224 659.191 434.883 632.871 431.609 C 632.871 431.609 632.427 428.807 633.316 424.614 L 633.342 424.614 C 655.239 425.785 671.684 390.078 671.684 390.078 Z " fill="rgb(10,109,83)"/></g><path d=" M 631.458 432.776 C 630.808 433.906 621.197 429.913 616.867 418.357 L 616.863 418.357 C 614.263 411.416 613.57 401.745 617.866 388.822 C 629.153 354.884 624.501 348.486 624.363 348.306 C 624.59 348.414 634.398 353.284 640.724 365.133 C 640.724 365.133 640.731 365.149 640.75 365.179 C 647.707 378.251 650.422 399.792 631.458 432.776 Z " fill="rgb(21,154,122)"/><path d=" M 624.358 348.303 C 624.358 348.303 639.076 366.873 633.471 402.196 C 627.867 437.518 631.458 432.777 631.458 432.777" fill="none" vector-effect="non-scaling-stroke" stroke-width="1" stroke="rgb(12,128,104)" stroke-linejoin="miter" stroke-linecap="butt" stroke-miterlimit="3" style="mix-blend-mode:source-over;"/><g opacity="0.5"><path d=" M 631.458 432.776 C 630.808 433.906 621.197 429.913 616.867 418.357 C 641.099 425.242 640.724 365.133 640.724 365.133 C 640.724 365.133 640.731 365.149 640.75 365.179 C 647.707 378.251 650.422 399.792 631.458 432.776 Z " fill="rgb(12,128,104)"/></g><path d=" M 584.773 383.302 C 584.773 383.302 584.777 383.34 584.785 383.42 C 584.766 383.336 584.773 383.302 584.773 383.302 Z " fill="rgb(12,128,104)"/><path d=" M 650.085 432.272 L 650.085 459.399 C 650.085 467.335 643.652 473.768 635.716 473.768 L 622.958 473.768 C 617.763 473.768 613.21 471.011 610.688 466.876 L 610.684 466.876 C 609.355 464.698 608.589 462.136 608.589 459.399 L 608.589 432.272 L 650.085 432.272 Z " fill="rgb(235,161,84)"/><path d=" M 651.593 428.752 L 607.082 428.752 C 606.497 428.752 606.024 429.227 606.024 429.812 L 606.024 431.212 C 606.024 431.797 606.497 432.272 607.082 432.272 L 651.593 432.272 C 652.178 432.272 652.653 431.798 652.653 431.212 L 652.653 429.812 C 652.653 429.227 652.178 428.752 651.593 428.752 Z " fill="rgb(235,161,84)"/><path d=" M 650.085 432.272 L 650.085 459.399 C 650.085 467.335 643.652 473.768 635.716 473.768 L 622.958 473.768 C 617.763 473.768 613.21 471.011 610.688 466.876 C 641.08 476.421 647.681 454.073 646.505 445.21 C 645.334 436.346 634.383 432.272 634.383 432.272 L 650.085 432.272 Z " fill="rgb(220,131,30)"/></g></g></svg>